<svg xmlns="http://www.w3.org/2000/svg" xmlns:xlink="http://www.w3.org/1999/xlink" xmlns:lucid="lucid" width="900" height="480"><g transform="translate(-480 -100)" lucid:page-tab-id="0_0"><path d="M0 0h1870.4v1323.2H0z" fill="#fff"/><path d="M500 125c0-2.76 2.24-5 5-5h850c2.76 0 5 2.24 5 5v430c0 2.76-2.24 5-5 5H505c-2.76 0-5-2.24-5-5z" fill="#fff"/><path d="M517.03 120h8.02m8.02 0h8m8.03 0h8.02m8.02 0h8.02m8.02 0h8.02m8.02 0h8.02m8 0h8.03m8.02 0h8m8.03 0h8.02m8.02 0h8.02m8 0h8.02m8.02 0h8.02m8.02 0h8.02m8.02 0h8.02m8.02 0h8.02m8 0h8.03m8.03 0h8.02m8.02 0h8.02m8 0h8.03m8.02 0h8m8.03 0h8.02m8.02 0h8.02m8.02 0h8.02m8.02 0h8.02m8 0h8.03m8.02 0H926m8 0h8.03m8.02 0h8.02m8 0h8.03m8.02 0h8.02m8.02 0h8.02m8.02 0h8.02m8.02 0h8m8.03 0h8.02m8 0h8.03m8.02 0h8.02m8.02 0h8m8.02 0h8.02m8.02 0h8.02m8.02 0h8.02m8.02 0h8.02m8.02 0h8m8.03 0h8.03m8.02 0h8.02m8.02 0h8m8.03 0h8.02m8 0h8.03m8.02 0h8.02m8.02 0h8.02m8.02 0h8.02m8.02 0h8m8.03 0h8.02m8.02 0h4l2.95.96 1.8 2.46.25 1.58v3.98m0 7.96v7.97m0 7.97v7.96m0 7.97v7.96m0 7.96v7.97m0 7.95v7.96m0 7.97v7.97m0 7.96v7.96m0 7.97v7.96m0 7.95v7.96m0 7.98v7.96m0 7.96v7.97m0 7.96v7.96m0 7.96v7.96m0 7.96v7.96m0 7.97v7.97m0 7.96v7.97m0 7.96v7.96m0 7.97v7.95m0 7.96v7.97m0 7.97v7.96m0 7.96v7.97m0 7.96v7.95m0 7.96v7.98m0 7.96v7.96m0 7.97v7.96m0 7.96v7.96m0 7.96V555l-.96 2.95-2.46 1.8-1.58.25h-4m-8.03 0h-8.02m-8.02 0h-8m-8.03 0h-8.02m-8.02 0h-8.02m-8.02 0h-8.02m-8.02 0h-8.02m-8 0h-8.03m-8.02 0h-8m-8.03 0h-8.02m-8.02 0h-8.02m-8 0h-8.02m-8.02 0h-8.02m-8.02 0h-8.02m-8.02 0h-8.02m-8.02 0h-8.02m-8 0h-8.03m-8.03 0h-8.02m-8.02 0h-8.02m-8 0h-8.03m-8.02 0h-8m-8.03 0h-8.02m-8.02 0h-8.02m-8.02 0h-8.02m-8.02 0h-8.02m-8 0h-8.03m-8.02 0H934m-8 0h-8.03m-8.02 0h-8.02m-8 0h-8.03m-8.02 0h-8.02m-8.02 0h-8.02m-8.02 0h-8.02m-8.02 0h-8m-8.03 0h-8.02m-8 0h-8.03m-8.02 0h-8.02m-8.02 0h-8m-8.02 0h-8.02m-8.02 0h-8.02m-8.02 0h-8.02m-8.02 0h-8.02m-8.02 0h-8m-8.03 0h-8.03m-8.02 0h-8.02m-8.02 0h-8m-8.03 0h-8.02m-8 0h-8.03m-8.02 0h-8.02m-8.02 0h-8.02m-8.02 0h-8.02m-8.02 0h-8m-8.03 0h-8.02m-8.02 0h-4l-2.95-.96-1.8-2.46L500 555v-3.98m0-7.96v-7.97m0-7.97v-7.96m0-7.97v-7.96m0-7.96v-7.97m0-7.95v-7.96m0-7.97v-7.97m0-7.96v-7.96m0-7.97v-7.96m0-7.95v-7.96m0-7.98v-7.96m0-7.96v-7.97m0-7.96v-7.96m0-7.96v-7.96m0-7.96v-7.96m0-7.97v-7.97m0-7.96v-7.97m0-7.96v-7.96m0-7.97v-7.95m0-7.96v-7.97m0-7.97v-7.96m0-7.96v-7.97m0-7.96v-7.95m0-7.96v-7.98m0-7.96v-7.96m0-7.97v-7.96m0-7.96v-7.96m0-7.96V125l.96-2.95 2.46-1.8L505 120h4" stroke="#000" stroke-width="2" fill="none"/><path d="M520 225c0-2.76 2.24-5 5-5h130c2.76 0 5 2.24 5 5v110c0 2.76-2.24 5-5 5H525c-2.76 0-5-2.24-5-5z" stroke="#000" stroke-width="2" fill="#fff"/><path d="M500 245c0-2.76 2.24-5 5-5h30c2.76 0 5 2.24 5 5v10c0 2.76-2.24 5-5 5h-30c-2.76 0-5-2.24-5-5zM500 305c0-2.76 2.24-5 5-5h30c2.76 0 5 2.24 5 5v10c0 2.76-2.24 5-5 5h-30c-2.76 0-5-2.24-5-5z" stroke="#000" stroke-width="2" fill="#fff"/><use xlink:href="#a" transform="matrix(1,0,0,1,532,232) translate(5.049999999999997 40.8)"/><use xlink:href="#b" transform="matrix(1,0,0,1,532,232) translate(36 40.8)"/><use xlink:href="#c" transform="matrix(1,0,0,1,532,232) translate(28.099999999999998 62.4)"/><path d="M840 305c0-2.76 2.24-5 5-5h130c2.76 0 5 2.24 5 5v110c0 2.76-2.24 5-5 5H845c-2.76 0-5-2.24-5-5z" stroke="#000" stroke-width="2" fill="#fff"/><path d="M820 325c0-2.76 2.24-5 5-5h30c2.76 0 5 2.24 5 5v10c0 2.76-2.24 5-5 5h-30c-2.76 0-5-2.24-5-5zM820 385c0-2.76 2.24-5 5-5h30c2.76 0 5 2.24 5 5v10c0 2.76-2.24 5-5 5h-30c-2.76 0-5-2.24-5-5z" stroke="#000" stroke-width="2" fill="#fff"/><use xlink:href="#d" transform="matrix(1,0,0,1,852,312) translate(27.525 30)"/><use xlink:href="#e" transform="matrix(1,0,0,1,852,312) translate(29.549999999999997 51.6)"/><use xlink:href="#f" transform="matrix(1,0,0,1,852,312) translate(21.074999999999996 73.2)"/><path d="M840 165c0-2.76 2.24-5 5-5h130c2.76 0 5 2.24 5 5v110c0 2.76-2.24 5-5 5H845c-2.76 0-5-2.24-5-5z" stroke="#000" stroke-width="2" fill="#fff"/><path d="M820 185c0-2.76 2.24-5 5-5h30c2.76 0 5 2.24 5 5v10c0 2.76-2.24 5-5 5h-30c-2.76 0-5-2.24-5-5zM820 245c0-2.76 2.24-5 5-5h30c2.76 0 5 2.24 5 5v10c0 2.76-2.24 5-5 5h-30c-2.76 0-5-2.24-5-5z" stroke="#000" stroke-width="2" fill="#fff"/><use xlink:href="#g" transform="matrix(1,0,0,1,852,172) translate(1.0999999999999943 51.6)"/><use xlink:href="#h" transform="matrix(1,0,0,1,852,172) translate(58 51.6)"/><path d="M1160 425c0-2.76 2.24-5 5-5h130c2.76 0 5 2.24 5 5v110c0 2.76-2.24 5-5 5h-130c-2.76 0-5-2.24-5-5z" stroke="#000" stroke-width="2" fill="#fff"/><path d="M1140 445c0-2.76 2.24-5 5-5h30c2.76 0 5 2.24 5 5v10c0 2.76-2.24 5-5 5h-30c-2.76 0-5-2.24-5-5zM1140 505c0-2.76 2.24-5 5-5h30c2.76 0 5 2.24 5 5v10c0 2.76-2.24 5-5 5h-30c-2.76 0-5-2.24-5-5z" stroke="#000" stroke-width="2" fill="#fff"/><use xlink:href="#i" transform="matrix(1,0,0,1,1172,432) translate(6.074999999999996 51.6)"/><use xlink:href="#j" transform="matrix(1,0,0,1,1172,432) translate(46.025 51.6)"/><path d="M1160 225c0-2.76 2.24-5 5-5h130c2.76 0 5 2.24 5 5v110c0 2.76-2.24 5-5 5h-130c-2.76 0-5-2.24-5-5z" stroke="#000" stroke-width="2" fill="#fff"/><path d="M1140 245c0-2.76 2.24-5 5-5h30c2.76 0 5 2.24 5 5v10c0 2.76-2.24 5-5 5h-30c-2.76 0-5-2.24-5-5zM1140 305c0-2.76 2.24-5 5-5h30c2.76 0 5 2.24 5 5v10c0 2.76-2.24 5-5 5h-30c-2.76 0-5-2.24-5-5z" stroke="#000" stroke-width="2" fill="#fff"/><use xlink:href="#k" transform="matrix(1,0,0,1,1172,232) translate(15.524999999999999 40.8)"/><use xlink:href="#j" transform="matrix(1,0,0,1,1172,232) translate(26.049999999999997 62.4)"/><path d="M1020 220h10m40 0c0 11.05-8.95 20-20 20s-20-8.95-20-20 8.95-20 20-20 20 8.95 20 20z" stroke="#000" stroke-width="2" fill="#fff"/><path d="M1020 219.2h10v1.6h-10z" fill="none"/><path d="M790 360h-10m-40 0c0-11.05 8.95-20 20-20s20 8.95 20 20-8.95 20-20 20-20-8.95-20-20z" stroke="#000" stroke-width="2" fill="#fff"/><path d="M790 360.8h-10v-1.6h10z" fill="none"/><g fill="none"><path d="M710 360h-10m30 20c-11.05 0-20-8.95-20-20s8.95-20 20-20" stroke="#000" stroke-width="2"/><path d="M730 380c-11.05 0-20-8.95-20-20s8.95-20 20-20zM710 360c0 .44-.36.8-.8.8h-8.4c-.44 0-.8-.36-.8-.8 0-.44.36-.8.8-.8h8.4c.44 0 .8.36.8.8z"/></g><path d="M699 360h-18.5v-80H662" stroke="#000" stroke-width="2" fill="none"/><path d="M700 361h-1.03v-2H700zM662.03 281H661v-2h1.03z"/><path d="M716 360h22" fill="none"/><path d="M716 360h5.5m11 0h5.5M716.03 360H712" stroke="#000" stroke-width="2" fill="none"/><path d="M739 359.96l.03 1.04h-1.06v-2h1.15z"/><path d="M791 360h47" stroke="#000" stroke-width="2" fill="none"/><path d="M791.03 361H790v-2h1.03zM839 361h-1.03v-2H839z"/><path d="M1020 360h10m40 0c0 11.05-8.95 20-20 20s-20-8.95-20-20 8.95-20 20-20 20 8.95 20 20z" stroke="#000" stroke-width="2" fill="#fff"/><path d="M1020 359.2h10v1.6h-10z" fill="none"/><path d="M982 360h37" stroke="#000" stroke-width="2" fill="none"/><path d="M982.03 361H981v-2h1.03zM1020 361h-1.03v-2h1.03z"/><path d="M1090 360h10m-30-20c11.05 0 20 8.95 20 20s-8.95 20-20 20" stroke="#000" stroke-width="2" fill="none"/><path d="M1070 340c11.05 0 20 8.95 20 20s-8.95 20-20 20zM1090 360c0-.44.36-.8.8-.8h8.4c.44 0 .8.36.8.8 0 .44-.36.8-.8.8h-8.4c-.44 0-.8-.36-.8-.8z" fill="none"/><path d="M1101 360h18.5v89.63h18.5" stroke="#000" stroke-width="2" fill="none"/><path d="M1101.03 361H1100v-2h1.03zM1139 450.63h-1.03v-2h1.03z"/><path d="M1138 310.38h-18.5V360H1101" stroke="#000" stroke-width="2" fill="none"/><path d="M1139 311.38h-1.03v-2h1.03zM1101.03 361H1100v-2h1.03z"/><path d="M982 220h37" stroke="#000" stroke-width="2" fill="none"/><path d="M982.03 221H981v-2h1.03zM1020 221h-1.03v-2h1.03z"/><path d="M1090 220h10m-30-20c11.05 0 20 8.95 20 20s-8.95 20-20 20" stroke="#000" stroke-width="2" fill="none"/><path d="M1070 200c11.05 0 20 8.95 20 20s-8.95 20-20 20zM1090 220c0-.44.36-.8.8-.8h8.4c.44 0 .8.36.8.8 0 .44-.36.8-.8.8h-8.4c-.44 0-.8-.36-.8-.8z" fill="none"/><path d="M1101 220h18.5v29.63h18.5" stroke="#000" stroke-width="2" fill="none"/><path d="M1101.03 221H1100v-2h1.03zM1139 250.63h-1.03v-2h1.03z"/><path d="M1105 480c0 11.05-8.95 20-20 20s-20-8.95-20-20 8.95-20 20-20 20 8.95 20 20z" stroke="#000" stroke-width="2" fill="#fff"/><use xlink:href="#l" transform="matrix(1,0,0,1,1070,465) translate(10 18.15)"/><path d="M1158 480h-51" stroke="#000" stroke-width="2" fill="none"/><path d="M1159 481h-1.03v-2h1.03zM1107.03 481h-1.15l.12-.96-.03-1.04h1.06z"/><path d="M1200 160c0 11.05-8.95 20-20 20s-20-8.95-20-20 8.95-20 20-20 20 8.95 20 20z" stroke="#000" stroke-width="2" fill="#fff"/><g><use xlink:href="#l" transform="matrix(1,0,0,1,1165,145) translate(10 18.15)"/></g><path d="M1158 160h-38v60h-19" stroke="#000" stroke-width="2" fill="none"/><path d="M1159 159.96l.03 1.04h-1.06v-2h1.15zM1101.03 221H1100v-2h1.03z"/><defs><path d="M205 0l-28-72H64L36 0H1l101-248h38L239 0h-34zm-38-99l-47-123c-12 45-31 82-46 123h93" id="m"/><path d="M115-194c55 1 70 41 70 98S169 2 115 4C84 4 66-9 55-30l1 105H24l-1-265h31l2 30c10-21 28-34 59-34zm-8 174c40 0 45-34 45-75s-6-73-45-74c-42 0-51 32-51 76 0 43 10 73 51 73" id="n"/><path d="M24-231v-30h32v30H24zM24 0v-190h32V0H24" id="o"/><g id="a"><use transform="matrix(0.05,0,0,0.05,0,0)" xlink:href="#m"/><use transform="matrix(0.05,0,0,0.05,12,0)" xlink:href="#n"/><use transform="matrix(0.05,0,0,0.05,22,0)" xlink:href="#o"/></g><path d="M143 4C61 4 22-44 18-125c-5-107 100-154 193-111 17 8 29 25 37 43l-32 9c-13-25-37-40-76-40-61 0-88 39-88 99 0 61 29 100 91 101 35 0 62-11 79-27v-45h-74v-28h105v86C228-13 192 4 143 4" id="p"/><path d="M141-36C126-15 110 5 73 4 37 3 15-17 15-53c-1-64 63-63 125-63 3-35-9-54-41-54-24 1-41 7-42 31l-33-3c5-37 33-52 76-52 45 0 72 20 72 64v82c-1 20 7 32 28 27v20c-31 9-61-2-59-35zM48-53c0 20 12 33 32 33 41-3 63-29 60-74-43 2-92-5-92 41" id="q"/><path d="M59-47c-2 24 18 29 38 22v24C64 9 27 4 27-40v-127H5v-23h24l9-43h21v43h35v23H59v120" id="r"/><path d="M100-194c63 0 86 42 84 106H49c0 40 14 67 53 68 26 1 43-12 49-29l28 8c-11 28-37 45-77 45C44 4 14-33 15-96c1-61 26-98 85-98zm52 81c6-60-76-77-97-28-3 7-6 17-6 28h103" id="s"/><path d="M206 0h-36l-40-164L89 0H53L-1-190h32L70-26l43-164h34l41 164 42-164h31" id="t"/><path d="M179-190L93 31C79 59 56 82 12 73V49c39 6 53-20 64-50L1-190h34L92-34l54-156h33" id="u"/><g id="b"><use transform="matrix(0.05,0,0,0.05,0,0)" xlink:href="#p"/><use transform="matrix(0.05,0,0,0.05,14,0)" xlink:href="#q"/><use transform="matrix(0.05,0,0,0.05,24,0)" xlink:href="#r"/><use transform="matrix(0.05,0,0,0.05,29,0)" xlink:href="#s"/><use transform="matrix(0.05,0,0,0.05,39,0)" xlink:href="#t"/><use transform="matrix(0.05,0,0,0.05,51.95,0)" xlink:href="#q"/><use transform="matrix(0.05,0,0,0.05,61.95,0)" xlink:href="#u"/></g><path d="M87 75C49 33 22-17 22-94c0-76 28-126 65-167h31c-38 41-64 92-64 168S80 34 118 75H87" id="v"/><path d="M209 0H11v-25l151-195H24v-28h176v25L50-27h159V0" id="w"/><path d="M232-93c-1 65-40 97-104 97C67 4 28-28 28-90v-158h33c8 89-33 224 67 224 102 0 64-133 71-224h33v155" id="x"/><path d="M30 0v-248h33v221h125V0H30" id="y"/><path d="M33-261c38 41 65 92 65 168S71 34 33 75H2C39 34 66-17 66-93S39-220 2-261h31" id="z"/><g id="c"><use transform="matrix(0.05,0,0,0.05,0,0)" xlink:href="#v"/><use transform="matrix(0.05,0,0,0.05,5.95,0)" xlink:href="#w"/><use transform="matrix(0.05,0,0,0.05,16.900000000000002,0)" xlink:href="#x"/><use transform="matrix(0.05,0,0,0.05,29.85,0)" xlink:href="#y"/><use transform="matrix(0.05,0,0,0.05,39.85,0)" xlink:href="#y"/><use transform="matrix(0.05,0,0,0.05,49.85,0)" xlink:href="#z"/></g><path d="M30 0v-248h187v28H63v79h144v27H63v87h162V0H30" id="A"/><path d="M84 4C-5 8 30-112 23-190h32v120c0 31 7 50 39 49 72-2 45-101 50-169h31l1 190h-30c-1-10 1-25-2-33-11 22-28 36-60 37" id="B"/><path d="M114-163C36-179 61-72 57 0H25l-1-190h30c1 12-1 29 2 39 6-27 23-49 58-41v29" id="C"/><path d="M143 0L79-87 56-68V0H24v-261h32v163l83-92h37l-77 82L181 0h-38" id="D"/><g id="d"><use transform="matrix(0.05,0,0,0.05,0,0)" xlink:href="#A"/><use transform="matrix(0.05,0,0,0.05,12,0)" xlink:href="#B"/><use transform="matrix(0.05,0,0,0.05,22,0)" xlink:href="#C"/><use transform="matrix(0.05,0,0,0.05,27.950000000000003,0)" xlink:href="#s"/><use transform="matrix(0.05,0,0,0.05,37.95,0)" xlink:href="#D"/><use transform="matrix(0.05,0,0,0.05,46.95,0)" xlink:href="#q"/></g><path d="M185-189c-5-48-123-54-124 2 14 75 158 14 163 119 3 78-121 87-175 55-17-10-28-26-33-46l33-7c5 56 141 63 141-1 0-78-155-14-162-118-5-82 145-84 179-34 5 7 8 16 11 25" id="E"/><path d="M108 0H70L1-190h34L89-25l56-165h34" id="F"/><g id="e"><use transform="matrix(0.05,0,0,0.05,0,0)" xlink:href="#E"/><use transform="matrix(0.05,0,0,0.05,12,0)" xlink:href="#s"/><use transform="matrix(0.05,0,0,0.05,22,0)" xlink:href="#C"/><use transform="matrix(0.05,0,0,0.05,27.950000000000003,0)" xlink:href="#F"/><use transform="matrix(0.05,0,0,0.05,36.95,0)" xlink:href="#s"/><use transform="matrix(0.05,0,0,0.05,46.95,0)" xlink:href="#C"/></g><path d="M30-248c118-7 216 8 213 122C240-48 200 0 122 0H30v-248zM63-27c89 8 146-16 146-99s-60-101-146-95v194" id="G"/><path d="M135-143c-3-34-86-38-87 0 15 53 115 12 119 90S17 21 10-45l28-5c4 36 97 45 98 0-10-56-113-15-118-90-4-57 82-63 122-42 12 7 21 19 24 35" id="H"/><path d="M96-169c-40 0-48 33-48 73s9 75 48 75c24 0 41-14 43-38l32 2c-6 37-31 61-74 61-59 0-76-41-82-99-10-93 101-131 147-64 4 7 5 14 7 22l-32 3c-4-21-16-35-41-35" id="I"/><path d="M100-194c62-1 85 37 85 99 1 63-27 99-86 99S16-35 15-95c0-66 28-99 85-99zM99-20c44 1 53-31 53-75 0-43-8-75-51-75s-53 32-53 75 10 74 51 75" id="J"/><g id="f"><use transform="matrix(0.05,0,0,0.05,0,0)" xlink:href="#G"/><use transform="matrix(0.05,0,0,0.05,12.950000000000001,0)" xlink:href="#o"/><use transform="matrix(0.05,0,0,0.05,16.900000000000002,0)" xlink:href="#H"/><use transform="matrix(0.05,0,0,0.05,25.900000000000002,0)" xlink:href="#I"/><use transform="matrix(0.05,0,0,0.05,34.900000000000006,0)" xlink:href="#J"/><use transform="matrix(0.05,0,0,0.05,44.900000000000006,0)" xlink:href="#F"/><use transform="matrix(0.05,0,0,0.05,53.900000000000006,0)" xlink:href="#s"/><use transform="matrix(0.05,0,0,0.05,63.900000000000006,0)" xlink:href="#C"/></g><path d="M212-179c-10-28-35-45-73-45-59 0-87 40-87 99 0 60 29 101 89 101 43 0 62-24 78-52l27 14C228-24 195 4 139 4 59 4 22-46 18-125c-6-104 99-153 187-111 19 9 31 26 39 46" id="K"/><path d="M117-194c89-4 53 116 60 194h-32v-121c0-31-8-49-39-48C34-167 62-67 57 0H25l-1-190h30c1 10-1 24 2 32 11-22 29-35 61-36" id="L"/><path d="M101-234c-31-9-42 10-38 44h38v23H63V0H32v-167H5v-23h27c-7-52 17-82 69-68v24" id="M"/><path d="M177-190C167-65 218 103 67 71c-23-6-38-20-44-43l32-5c15 47 100 32 89-28v-30C133-14 115 1 83 1 29 1 15-40 15-95c0-56 16-97 71-98 29-1 48 16 59 35 1-10 0-23 2-32h30zM94-22c36 0 50-32 50-73 0-42-14-75-50-75-39 0-46 34-46 75s6 73 46 73" id="N"/><g id="g"><use transform="matrix(0.05,0,0,0.05,0,0)" xlink:href="#K"/><use transform="matrix(0.05,0,0,0.05,12.950000000000001,0)" xlink:href="#J"/><use transform="matrix(0.05,0,0,0.05,22.950000000000003,0)" xlink:href="#L"/><use transform="matrix(0.05,0,0,0.05,32.95,0)" xlink:href="#M"/><use transform="matrix(0.05,0,0,0.05,37.95,0)" xlink:href="#o"/><use transform="matrix(0.05,0,0,0.05,41.900000000000006,0)" xlink:href="#N"/></g><g id="h"><use transform="matrix(0.05,0,0,0.05,0,0)" xlink:href="#E"/><use transform="matrix(0.05,0,0,0.05,12,0)" xlink:href="#s"/><use transform="matrix(0.05,0,0,0.05,22,0)" xlink:href="#C"/><use transform="matrix(0.05,0,0,0.05,27.950000000000003,0)" xlink:href="#F"/><use transform="matrix(0.05,0,0,0.05,36.95,0)" xlink:href="#s"/><use transform="matrix(0.05,0,0,0.05,46.95,0)" xlink:href="#C"/></g><path d="M33 0v-248h34V0H33" id="O"/><path d="M210-169c-67 3-38 105-44 169h-31v-121c0-29-5-50-35-48C34-165 62-65 56 0H25l-1-190h30c1 10-1 24 2 32 10-44 99-50 107 0 11-21 27-35 58-36 85-2 47 119 55 194h-31v-121c0-29-5-49-35-48" id="P"/><g id="i"><use transform="matrix(0.05,0,0,0.05,0,0)" xlink:href="#O"/><use transform="matrix(0.05,0,0,0.05,5,0)" xlink:href="#r"/><use transform="matrix(0.05,0,0,0.05,10,0)" xlink:href="#s"/><use transform="matrix(0.05,0,0,0.05,20,0)" xlink:href="#P"/></g><g id="j"><use transform="matrix(0.05,0,0,0.05,0,0)" xlink:href="#E"/><use transform="matrix(0.05,0,0,0.05,12,0)" xlink:href="#s"/><use transform="matrix(0.05,0,0,0.05,22,0)" xlink:href="#C"/><use transform="matrix(0.05,0,0,0.05,27.950000000000003,0)" xlink:href="#F"/><use transform="matrix(0.05,0,0,0.05,36.95,0)" xlink:href="#o"/><use transform="matrix(0.05,0,0,0.05,40.900000000000006,0)" xlink:href="#I"/><use transform="matrix(0.05,0,0,0.05,49.900000000000006,0)" xlink:href="#s"/></g><path d="M30-248c87 1 191-15 191 75 0 78-77 80-158 76V0H30v-248zm33 125c57 0 124 11 124-50 0-59-68-47-124-48v98" id="Q"/><path d="M85-194c31 0 48 13 60 33l-1-100h32l1 261h-30c-2-10 0-23-3-31C134-8 116 4 85 4 32 4 16-35 15-94c0-66 23-100 70-100zm9 24c-40 0-46 34-46 75 0 40 6 74 45 74 42 0 51-32 51-76 0-42-9-74-50-73" id="R"/><g id="k"><use transform="matrix(0.05,0,0,0.05,0,0)" xlink:href="#Q"/><use transform="matrix(0.05,0,0,0.05,12,0)" xlink:href="#C"/><use transform="matrix(0.05,0,0,0.05,17.95,0)" xlink:href="#J"/><use transform="matrix(0.05,0,0,0.05,27.950000000000003,0)" xlink:href="#R"/><use transform="matrix(0.05,0,0,0.05,37.95,0)" xlink:href="#B"/><use transform="matrix(0.05,0,0,0.05,47.95,0)" xlink:href="#I"/><use transform="matrix(0.05,0,0,0.05,56.95,0)" xlink:href="#r"/><use transform="matrix(0.05,0,0,0.05,61.95,0)" xlink:href="#J"/><use transform="matrix(0.05,0,0,0.05,71.95,0)" xlink:href="#H"/></g><path d="M27 0v-27h64v-190l-56 39v-29l58-41h29v221h61V0H27" id="S"/><use transform="matrix(0.05,0,0,0.05,0,0)" xlink:href="#S" id="l"/></defs></g></svg>